<svg width="196" height="72" viewBox="0 0 196 72" fill="none" xmlns="http://www.w3.org/2000/svg">
<rect x="0.953125" width="194.4" height="72" rx="12" fill="white"/>
<path d="M42.7855 51.4492C40.9564 53.2223 38.9593 52.9423 37.0368 52.1024C35.0024 51.2439 33.136 51.2066 30.9896 52.1024C28.3019 53.2596 26.8835 52.9237 25.2783 51.4492C16.1701 42.061 17.514 27.7642 27.854 27.2416C30.3737 27.3722 32.1281 28.6227 33.6026 28.7347C35.805 28.2868 37.9141 26.9989 40.2658 27.1669C43.0841 27.3909 45.2118 28.5108 46.6116 30.5265C40.7884 34.0167 42.1695 41.6878 47.5075 43.8342C46.4437 46.6338 45.0625 49.4148 42.7668 51.4679L42.7855 51.4492ZM33.416 27.1296C33.136 22.9675 36.5142 19.5332 40.3964 19.1973C40.9377 24.0127 36.029 27.5962 33.416 27.1296Z" fill="#302F58"/>
<path d="M71.9331 28.3672C69.4251 28.3672 67.6851 26.4832 67.6851 23.9992C67.6851 21.5272 69.4371 19.6312 71.9331 19.6312C73.5051 19.6312 74.8971 20.3632 75.6171 21.8152L74.6331 22.3672C74.0571 21.2512 73.1331 20.7352 72.0051 20.7352C70.1571 20.7352 68.9211 22.1032 68.9211 23.9992C68.9211 25.8952 70.1571 27.2632 72.0051 27.2632C73.1331 27.2632 74.0691 26.7472 74.6451 25.6312L75.6171 26.1832C74.8971 27.6352 73.5051 28.3672 71.9331 28.3672ZM79.7563 28.3672C77.8363 28.3672 76.6003 26.9032 76.6003 25.1632C76.6003 23.4232 77.8363 21.9472 79.7563 21.9472C81.6643 21.9472 82.9003 23.4232 82.9003 25.1632C82.9003 26.9032 81.6643 28.3672 79.7563 28.3672ZM79.7563 27.3232C80.9443 27.3232 81.7243 26.4232 81.7243 25.1632C81.7243 23.8912 80.9443 22.9912 79.7563 22.9912C78.5563 22.9912 77.7763 23.8912 77.7763 25.1632C77.7763 26.4232 78.5563 27.3232 79.7563 27.3232ZM91.6597 21.9472C92.9917 21.9472 93.7237 22.7872 93.7237 24.2752V28.1992H92.5957V24.5392C92.5957 23.4712 92.2357 22.9912 91.3717 22.9912C90.3997 22.9912 89.7037 23.6032 89.7037 24.6112V28.1992H88.5757V24.5392C88.5757 23.4712 88.2037 22.9912 87.3397 22.9912C86.3677 22.9912 85.6717 23.6032 85.6717 24.6112V28.1992H84.5437V22.1152H85.6717V23.1112C86.0077 22.3792 86.7397 21.9472 87.6517 21.9472C88.5757 21.9472 89.2357 22.3912 89.5237 23.1952C89.8477 22.4392 90.6397 21.9472 91.6597 21.9472ZM96.3228 20.9152C95.8788 20.9152 95.5668 20.5912 95.5668 20.1592C95.5668 19.7272 95.8788 19.4032 96.3228 19.4032C96.7788 19.4032 97.0788 19.7272 97.0788 20.1592C97.0788 20.5912 96.7788 20.9152 96.3228 20.9152ZM95.7588 28.1992V22.1152H96.8868V28.1992H95.7588ZM102.162 21.9472C103.518 21.9472 104.322 22.7872 104.322 24.2872V28.1992H103.194V24.5632C103.194 23.4712 102.762 22.9912 101.862 22.9912C100.842 22.9912 100.086 23.6032 100.086 24.6112V28.1992H98.9578V22.1152H100.086V23.1112C100.434 22.3672 101.214 21.9472 102.162 21.9472ZM110.997 22.1152H112.125V27.5032C112.125 29.6152 110.961 30.7672 108.933 30.7672C107.769 30.7672 106.773 30.3952 106.149 29.7712L106.761 28.9432C107.313 29.4352 108.081 29.7352 108.909 29.7352C110.241 29.7352 110.997 28.9912 110.997 27.5032V26.9752C110.649 27.7192 109.809 28.1872 108.801 28.1872C107.145 28.1872 105.921 26.9152 105.921 25.0672C105.921 23.2312 107.145 21.9472 108.801 21.9472C109.797 21.9472 110.649 22.4272 110.997 23.1832V22.1152ZM109.077 27.1552C110.265 27.1552 111.045 26.2792 111.045 25.0672C111.045 23.8552 110.265 22.9912 109.077 22.9912C107.877 22.9912 107.097 23.8552 107.097 25.0672C107.097 26.2792 107.877 27.1552 109.077 27.1552ZM119.106 28.3672C117.858 28.3672 116.862 27.8632 116.382 27.0832L117.126 26.4472C117.582 27.0592 118.29 27.3712 119.106 27.3712C119.934 27.3712 120.414 27.0232 120.414 26.5192C120.414 26.1232 120.15 25.8712 119.406 25.7032L118.434 25.4872C117.174 25.1872 116.598 24.6352 116.598 23.7832C116.598 22.7152 117.498 21.9472 119.01 21.9472C120.09 21.9472 120.942 22.3312 121.446 22.9672L120.726 23.6512C120.294 23.1952 119.682 22.9552 118.962 22.9552C118.134 22.9552 117.726 23.2672 117.726 23.7472C117.726 24.1072 117.954 24.3352 118.746 24.5152L119.814 24.7552C121.062 25.0312 121.542 25.6072 121.542 26.4352C121.542 27.5992 120.654 28.3672 119.106 28.3672ZM125.834 28.3672C123.914 28.3672 122.678 26.9032 122.678 25.1632C122.678 23.4232 123.914 21.9472 125.834 21.9472C127.742 21.9472 128.978 23.4232 128.978 25.1632C128.978 26.9032 127.742 28.3672 125.834 28.3672ZM125.834 27.3232C127.022 27.3232 127.802 26.4232 127.802 25.1632C127.802 23.8912 127.022 22.9912 125.834 22.9912C124.634 22.9912 123.854 23.8912 123.854 25.1632C123.854 26.4232 124.634 27.3232 125.834 27.3232ZM133.358 28.3672C131.438 28.3672 130.202 26.9032 130.202 25.1632C130.202 23.4232 131.438 21.9472 133.358 21.9472C135.266 21.9472 136.502 23.4232 136.502 25.1632C136.502 26.9032 135.266 28.3672 133.358 28.3672ZM133.358 27.3232C134.546 27.3232 135.326 26.4232 135.326 25.1632C135.326 23.8912 134.546 22.9912 133.358 22.9912C132.158 22.9912 131.378 23.8912 131.378 25.1632C131.378 26.4232 132.158 27.3232 133.358 27.3232ZM141.349 21.9472C142.705 21.9472 143.509 22.7872 143.509 24.2872V28.1992H142.381V24.5632C142.381 23.4712 141.949 22.9912 141.049 22.9912C140.029 22.9912 139.273 23.6032 139.273 24.6112V28.1992H138.145V22.1152H139.273V23.1112C139.621 22.3672 140.401 21.9472 141.349 21.9472ZM150.459 28.2952C149.211 28.2952 148.562 27.7312 148.562 26.5792V23.0872H147.363V22.1152H148.562V20.3152H149.691V22.1152H151.551V23.0872H149.691V26.4712C149.691 27.0712 149.979 27.2992 150.639 27.2992C150.903 27.2992 151.227 27.2632 151.575 27.1912V28.1392C151.179 28.2592 150.783 28.2952 150.459 28.2952ZM155.67 28.3672C153.75 28.3672 152.514 26.9032 152.514 25.1632C152.514 23.4232 153.75 21.9472 155.67 21.9472C157.578 21.9472 158.814 23.4232 158.814 25.1632C158.814 26.9032 157.578 28.3672 155.67 28.3672ZM155.67 27.3232C156.858 27.3232 157.638 26.4232 157.638 25.1632C157.638 23.8912 156.858 22.9912 155.67 22.9912C154.47 22.9912 153.69 23.8912 153.69 25.1632C153.69 26.4232 154.47 27.3232 155.67 27.3232ZM165.388 28.2952C164.14 28.2952 163.492 27.7312 163.492 26.5792V23.0872H162.292V22.1152H163.492V20.3152H164.62V22.1152H166.48V23.0872H164.62V26.4712C164.62 27.0712 164.908 27.2992 165.568 27.2992C165.832 27.2992 166.156 27.2632 166.504 27.1912V28.1392C166.108 28.2592 165.712 28.2952 165.388 28.2952ZM171.185 21.9472C172.541 21.9472 173.345 22.7872 173.345 24.2872V28.1992H172.217V24.5632C172.217 23.4712 171.785 22.9912 170.885 22.9912C169.865 22.9912 169.109 23.6032 169.109 24.6112V28.1992H167.981V19.4152H169.109V23.1112C169.457 22.3672 170.237 21.9472 171.185 21.9472ZM180.908 24.9592C180.908 25.1392 180.896 25.3192 180.872 25.4992H176.096C176.228 26.6632 176.984 27.3472 178.124 27.3472C178.88 27.3472 179.504 27.0592 180.008 26.4472L180.74 27.0952C180.152 27.8992 179.228 28.3672 178.1 28.3672C176.228 28.3672 174.944 27.0712 174.944 25.1752C174.944 23.3032 176.192 21.9472 178.004 21.9472C179.708 21.9472 180.908 23.1592 180.908 24.9592ZM178.004 22.9792C176.96 22.9792 176.288 23.6152 176.12 24.6352H179.768C179.672 23.5672 178.988 22.9792 178.004 22.9792Z" fill="#302F58"/>
<path d="M78.7443 50.7988L77.4795 47.4124H71.2371L69.9723 50.7988H67.2591L72.8691 36.5188H75.8271L81.4575 50.7988H78.7443ZM72.0735 45.1888H76.6431L74.3583 39.0688L72.0735 45.1888ZM89.3031 40.1296C92.0775 40.1296 94.0767 42.3736 94.0767 45.6172C94.0767 48.8608 92.0775 51.0844 89.3031 51.0844C87.7731 51.0844 86.4267 50.3908 85.7943 49.2076V54.8788H83.3055V40.4152H85.7535V42.088C86.3655 40.864 87.7323 40.1296 89.3031 40.1296ZM88.6095 48.82C90.3843 48.82 91.5267 47.494 91.5267 45.6172C91.5267 43.72 90.3843 42.394 88.6095 42.394C86.8143 42.394 85.6923 43.72 85.6923 45.6172C85.6923 47.494 86.8143 48.82 88.6095 48.82ZM102.531 40.1296C105.306 40.1296 107.305 42.3736 107.305 45.6172C107.305 48.8608 105.306 51.0844 102.531 51.0844C101.001 51.0844 99.6548 50.3908 99.0224 49.2076V54.8788H96.5336V40.4152H98.9816V42.088C99.5936 40.864 100.96 40.1296 102.531 40.1296ZM101.838 48.82C103.612 48.82 104.755 47.494 104.755 45.6172C104.755 43.72 103.612 42.394 101.838 42.394C100.042 42.394 98.9204 43.72 98.9204 45.6172C98.9204 47.494 100.042 48.82 101.838 48.82ZM119.505 51.0844C116.608 51.0844 114.446 49.8604 113.507 47.8612L115.384 46.5148C116.221 47.9632 117.73 48.7588 119.587 48.7588C121.402 48.7588 122.402 47.9836 122.402 46.8004C122.402 45.9028 121.831 45.3316 120.239 44.944L117.934 44.3932C115.262 43.7608 113.915 42.394 113.915 40.3948C113.915 37.9672 115.915 36.2332 119.26 36.2332C121.851 36.2332 123.85 37.2736 124.687 38.8444L122.83 40.2112C122.055 39.13 120.811 38.5588 119.219 38.5588C117.485 38.5588 116.547 39.2524 116.547 40.354C116.547 41.17 117.077 41.7208 118.771 42.1288L121.117 42.6796C123.85 43.3324 125.033 44.6788 125.033 46.678C125.033 49.2892 123.034 51.0844 119.505 51.0844ZM131.617 50.962C129.271 50.962 128.17 49.9624 128.17 47.7592V42.598H126.211V40.4152H128.17V37.3552H130.659V40.4152H133.596V42.598H130.659V47.4328C130.659 48.3916 131.087 48.7384 132.148 48.7384C132.576 48.7384 133.107 48.6976 133.637 48.5752V50.6764C132.964 50.8804 132.291 50.962 131.617 50.962ZM140.554 51.0844C137.229 51.0844 135.087 48.616 135.087 45.6172C135.087 42.598 137.229 40.1296 140.554 40.1296C143.9 40.1296 146.021 42.598 146.021 45.6172C146.021 48.616 143.9 51.0844 140.554 51.0844ZM140.554 48.82C142.349 48.82 143.471 47.494 143.471 45.6172C143.471 43.72 142.349 42.394 140.554 42.394C138.759 42.394 137.637 43.72 137.637 45.6172C137.637 47.494 138.759 48.82 140.554 48.82ZM153.978 40.2316C154.304 40.2316 154.59 40.2724 154.876 40.3744V42.7C154.488 42.6388 154.08 42.598 153.733 42.598C151.918 42.598 150.959 43.516 150.959 45.6784V50.7988H148.47V40.4152H150.918V42.1492C151.428 40.9456 152.55 40.2316 153.978 40.2316ZM166.168 45.3928C166.168 45.6988 166.148 46.0252 166.107 46.3516H158.375C158.64 48.0244 159.742 48.922 161.435 48.922C162.598 48.922 163.577 48.4936 164.332 47.6164L165.821 49.0852C164.842 50.35 163.271 51.0844 161.354 51.0844C158.049 51.0844 155.846 48.922 155.846 45.658C155.846 42.4348 157.967 40.1296 161.109 40.1296C164.128 40.1296 166.168 42.2308 166.168 45.3928ZM161.129 42.292C159.599 42.292 158.64 43.1692 158.375 44.6584H163.679C163.557 43.1284 162.618 42.292 161.129 42.292Z" fill="#302F58"/>
</svg>
