<svg width="39" height="40" viewBox="0 0 39 40" fill="none" xmlns="http://www.w3.org/2000/svg">
<g id="ic:baseline-apple">
<path id="Vector" d="M28.9886 35.4492C27.1595 37.2223 25.1624 36.9423 23.24 36.1024C21.2056 35.2439 19.3391 35.2066 17.1927 36.1024C14.5051 37.2596 13.0866 36.9237 11.4815 35.4492C2.37327 26.061 3.7171 11.7642 14.0571 11.2416C16.5768 11.3722 18.3313 12.6227 19.8057 12.7347C22.0081 12.2868 24.1172 10.9989 26.4689 11.1669C29.2872 11.3909 31.4149 12.5108 32.8148 14.5265C26.9915 18.0167 28.3727 25.6878 33.7106 27.8342C32.6468 30.6338 31.2656 33.4148 28.9699 35.4679L28.9886 35.4492ZM19.6191 11.1296C19.3391 6.96746 22.7174 3.53322 26.5995 3.19727C27.1408 8.01266 22.2321 11.5962 19.6191 11.1296Z" fill="#0B5127"/>
</g>
</svg>
