<svg width="126" height="32" viewBox="0 0 126 32" fill="none" xmlns="http://www.w3.org/2000/svg">
<g id="CIRCLE">
<path d="M11.3454 7.25452C10.6036 7.25452 9.86188 7.56606 9.12011 8.18915C8.40801 8.81224 7.79975 9.85072 7.29535 11.3046C6.79095 12.7288 6.53874 14.5684 6.53874 16.8234C6.53874 19.019 6.85029 20.7696 7.47337 22.0751C8.12613 23.351 8.85307 24.2411 9.65418 24.7455C10.485 25.2499 11.1971 25.5021 11.7905 25.5021C12.3246 25.5021 12.8735 25.3241 13.4372 24.968C14.001 24.5823 14.4905 24.1817 14.9059 23.7663C14.9653 23.707 15.0543 23.6032 15.173 23.4548C15.3213 23.3064 15.4548 23.2323 15.5735 23.2323C15.7219 23.2323 15.8999 23.2916 16.1076 23.4103L19.8906 25.5021C20.0093 25.5614 20.1873 25.6504 20.4247 25.7691C20.6917 25.8581 20.8698 25.9471 20.9588 26.0362C21.0775 26.1252 21.1368 26.2439 21.1368 26.3922C21.1368 26.5406 21.0923 26.7038 21.0033 26.8818C20.3505 27.9796 19.3269 29.1071 17.9323 30.2643C16.5378 31.4214 14.6092 32 12.1465 32C10.2179 32 8.3635 31.2879 6.58325 29.8637C4.83267 28.4098 3.42331 26.4367 2.35516 23.9444C1.287 21.452 0.75293 18.7075 0.75293 15.7107C0.75293 12.7436 1.25733 10.0732 2.26614 7.69958C3.30462 5.32591 4.62497 3.47149 6.2272 2.1363C7.82942 0.801111 9.47616 0.133517 11.1674 0.133517C13.274 0.133517 14.9653 0.57858 16.2411 1.46871C17.5466 2.32916 18.4813 3.15994 19.045 3.96106C19.1637 4.13908 19.2675 4.30227 19.3565 4.45062C19.4752 4.59898 19.5346 4.74733 19.5346 4.89569C19.5346 5.07371 19.3714 5.31108 19.045 5.60779C17.6801 6.67594 16.701 7.61057 16.1076 8.41168C15.8109 8.7974 15.5587 9.09411 15.351 9.30181C15.1433 9.47983 14.9356 9.56884 14.7279 9.56884C14.5202 9.56884 14.2828 9.42049 14.0158 9.12378C13.3927 8.44135 12.9031 7.96662 12.5471 7.69958C12.2207 7.40287 11.8202 7.25452 11.3454 7.25452Z" fill="#FAFAFA"/>
<path d="M27.7825 1.73574C27.6935 2.3885 27.6193 4.0649 27.56 6.76495C27.56 7.59573 27.5006 9.70236 27.3819 13.0848C27.2632 16.3486 27.2039 18.3366 27.2039 19.0487C27.2039 20.7696 27.2336 22.9504 27.2929 25.5911C27.3523 28.2021 27.4116 29.7598 27.4709 30.2643C27.5006 30.4423 27.5154 30.65 27.5154 30.8873C27.5154 31.095 27.4709 31.2434 27.3819 31.3324C27.3226 31.4214 27.2187 31.5104 27.0704 31.5994C26.8924 31.7181 26.4325 31.7775 25.6907 31.7775C25.572 31.7775 25.3791 31.7775 25.1121 31.7775C24.8747 31.7775 24.7264 31.7478 24.667 31.6885C24.6077 31.6291 24.578 31.5104 24.578 31.3324L24.6225 29.9082L24.7116 24.0779L24.8006 14.7316C24.8006 13.8414 24.8599 11.8238 24.9786 8.67872C25.0083 7.93695 25.0528 6.73528 25.1121 5.07371C25.1714 3.38247 25.1714 2.3885 25.1121 2.09179L25.0676 1.15716C25.0676 0.38572 25.305 0 25.7797 0L27.4264 0.0445057C27.7231 0.0445057 27.8715 0.252202 27.8715 0.667593C27.8715 0.815947 27.8567 0.993973 27.827 1.20167C27.7973 1.37969 27.7825 1.55772 27.7825 1.73574Z" fill="#FAFAFA"/>
<path d="M52.3642 29.6412C53.1653 30.4423 53.5659 30.9912 53.5659 31.2879C53.5659 31.3472 53.4917 31.4511 53.3433 31.5994C53.0763 31.7775 52.4087 31.8665 51.3405 31.8665C50.5691 31.8665 50.0795 31.8071 49.8718 31.6885C49.6641 31.5994 49.501 31.4363 49.3823 31.1989C49.2933 30.9615 49.2191 30.7835 49.1597 30.6648C49.0707 30.4868 48.6998 29.9824 48.0471 29.1516C47.424 28.2911 46.9493 27.6384 46.6229 27.1933C45.0503 25.1757 43.6855 23.3509 42.5283 21.7191C41.8162 20.7102 40.4959 18.9745 38.5673 16.5118L37.8552 15.6217L34.7842 11.7942L34.6062 13.5744C34.4875 14.4645 34.4578 15.5327 34.5172 16.7789C34.6062 17.6096 34.6655 19.7608 34.6952 23.2323C34.7249 26.7038 34.7397 29.2406 34.7397 30.8428C34.7397 31.3176 34.5617 31.6143 34.2056 31.733C33.8496 31.8813 33.4342 31.9555 32.9595 31.9555C32.7518 31.9555 32.6182 31.8665 32.5589 31.6885C32.4996 31.5104 32.4551 31.3176 32.4254 31.1099C32.4254 30.9022 32.4254 30.7687 32.4254 30.7093C32.366 30.2346 32.3364 29.5373 32.3364 28.6175C32.3364 28.0241 32.3512 27.579 32.3809 27.2823C32.4106 25.6801 32.4551 22.8911 32.5144 18.9152C32.5737 14.9096 32.6034 11.3194 32.6034 8.14464C32.6034 4.7325 32.5589 2.74455 32.4699 2.1808C32.4402 1.94344 32.4254 1.6319 32.4254 1.24618C32.4254 0.801113 32.4847 0.51924 32.6034 0.400556C32.7518 0.281873 32.9595 0.222531 33.2265 0.222531C33.8199 0.222531 34.3985 0.237366 34.9622 0.267037L39.8134 0.356048C41.5937 0.356048 43.4481 0.667592 45.3767 1.29068C47.3053 1.91377 48.2696 3.07093 48.2696 4.76217C48.2696 6.3644 47.6762 7.61057 46.4894 8.50069C45.3025 9.39082 43.9673 9.99907 42.4838 10.3255C41.0299 10.6518 39.7541 10.815 38.6563 10.815C38.2705 10.815 38.0628 10.8002 38.0332 10.7705C38.2112 10.9485 39.3832 12.5211 41.5492 15.4882C48.0768 24.2411 51.6818 28.9587 52.3642 29.6412ZM34.6507 8.99026C35.6298 8.99026 36.3716 8.97543 36.876 8.94576C38.5969 8.88642 39.9321 8.76773 40.8816 8.58971C42.2464 8.35234 43.2701 8.02596 43.9525 7.61057C44.6646 7.19518 45.0207 6.54242 45.0207 5.65229C45.0207 5.05888 44.7091 4.55447 44.086 4.13908C43.4629 3.69402 42.7063 3.36764 41.8162 3.15994C40.9558 2.92258 40.1991 2.80389 39.5464 2.80389C38.8046 2.77422 37.7661 2.75939 36.431 2.75939H34.9177L34.6507 8.99026Z" fill="#FAFAFA"/>
<path d="M66.6305 7.25452C65.8888 7.25452 65.147 7.56606 64.4052 8.18915C63.6931 8.81224 63.0849 9.85072 62.5805 11.3046C62.0761 12.7288 61.8239 14.5684 61.8239 16.8234C61.8239 19.019 62.1354 20.7696 62.7585 22.0751C63.4112 23.351 64.1382 24.2411 64.9393 24.7455C65.7701 25.2499 66.4822 25.5021 67.0756 25.5021C67.6097 25.5021 68.1586 25.3241 68.7223 24.968C69.2861 24.5823 69.7756 24.1817 70.191 23.7663C70.2504 23.707 70.3394 23.6032 70.4581 23.4548C70.6064 23.3064 70.7399 23.2323 70.8586 23.2323C71.007 23.2323 71.185 23.2916 71.3927 23.4103L75.1757 25.5021C75.2944 25.5614 75.4724 25.6504 75.7098 25.7691C75.9769 25.8581 76.1549 25.9471 76.2439 26.0362C76.3626 26.1252 76.4219 26.2439 76.4219 26.3922C76.4219 26.5406 76.3774 26.7038 76.2884 26.8818C75.6356 27.9796 74.612 29.1071 73.2175 30.2643C71.8229 31.4214 69.8943 32 67.4316 32C65.503 32 63.6486 31.2879 61.8684 29.8637C60.1178 28.4098 58.7084 26.4367 57.6403 23.9444C56.5721 21.452 56.038 18.7075 56.038 15.7107C56.038 12.7436 56.5424 10.0732 57.5513 7.69958C58.5897 5.32591 59.9101 3.47149 61.5123 2.1363C63.1145 0.801111 64.7613 0.133517 66.4525 0.133517C68.5591 0.133517 70.2504 0.57858 71.5262 1.46871C72.8317 2.32916 73.7664 3.15994 74.3301 3.96106C74.4488 4.13908 74.5527 4.30227 74.6417 4.45062C74.7603 4.59898 74.8197 4.74733 74.8197 4.89569C74.8197 5.07371 74.6565 5.31108 74.3301 5.60779C72.9653 6.67594 71.9861 7.61057 71.3927 8.41168C71.096 8.7974 70.8438 9.09411 70.6361 9.30181C70.4284 9.47983 70.2207 9.56884 70.013 9.56884C69.8053 9.56884 69.5679 9.42049 69.3009 9.12378C68.6778 8.44135 68.1883 7.96662 67.8322 7.69958C67.5058 7.40287 67.1053 7.25452 66.6305 7.25452Z" fill="#FAFAFA"/>
<path d="M84.4918 3.24896C84.3434 7.40287 84.2693 9.65786 84.2693 10.0139L84.2248 16.3783C84.2248 16.942 84.2396 17.4316 84.2693 17.847L84.3138 20.5174C84.3138 21.1405 84.2989 21.5262 84.2693 21.6745C84.2396 21.8526 84.2248 22.0158 84.2248 22.1641C84.2544 22.3125 84.2693 22.4163 84.2693 22.4757C84.2693 22.5943 84.2841 22.6685 84.3138 22.6982L85.3819 22.7872C86.3314 22.8465 87.1177 22.8614 87.7408 22.8317L95.9744 22.7427C95.9744 22.7427 97.5321 22.7872 100.648 22.8762L102.739 22.9207C103.066 22.9504 103.229 23.0394 103.229 23.1878C103.229 23.2471 103.214 23.3213 103.184 23.4103C103.155 23.4993 103.14 23.5883 103.14 23.6773V25.7246C103.14 26.2587 103.229 27.3862 103.407 29.1071L103.585 30.9764L103.629 31.1989C103.629 31.3472 103.555 31.4363 103.407 31.4659C103.259 31.5253 102.992 31.5549 102.606 31.5549L99.3569 31.5104L93.8381 31.4214C93.0963 31.4214 92.0579 31.4659 90.7227 31.5549C90.1293 31.5846 89.4617 31.6143 88.7199 31.6439C88.0078 31.6736 87.2957 31.6885 86.5836 31.6885L85.827 31.6439C85.649 31.6143 85.3077 31.5994 84.8033 31.5994L82.8006 31.6439C82.4445 31.6736 81.9846 31.6885 81.4209 31.6885C81.0351 31.6885 80.7978 31.6291 80.7088 31.5104C80.6494 31.4214 80.6198 31.2731 80.6198 31.0654C80.6494 30.8577 80.6643 30.6796 80.6643 30.5313C80.6643 29.8785 80.7088 28.751 80.7978 27.1488L80.9313 22.5647L80.8423 20.4729C80.8126 20.0575 80.7829 19.5679 80.7533 19.0042C80.7236 18.4108 80.7088 17.8025 80.7088 17.1794C80.7088 18.1882 80.7978 17.1794 80.9758 14.153C81.1538 11.0969 81.2428 9.2128 81.2428 8.50069L81.1983 3.47149L81.1093 0.623088V0.578582C81.1093 0.341215 81.2725 0.222531 81.5989 0.222531L82.222 0.267037C82.3703 0.267037 82.5632 0.281872 82.8006 0.311542C83.0379 0.311542 83.4088 0.311542 83.9132 0.311542H84.3138C84.4918 0.311542 84.5808 0.430226 84.5808 0.667593L84.4918 3.24896Z" fill="#FAFAFA"/>
<path d="M125.131 2.35883C125.131 3.04126 125.071 3.38247 124.953 3.38247C124.774 3.38247 124.567 3.36764 124.329 3.33797C124.122 3.27863 123.855 3.24896 123.528 3.24896H116.407L110.889 3.20445C110.711 3.20445 110.043 3.24896 108.886 3.33797L107.862 3.42698L107.773 4.62865C107.743 5.07371 107.729 5.77098 107.729 6.72044C107.729 7.19518 107.758 7.81827 107.818 8.58971C107.877 9.30181 107.907 9.82105 107.907 10.1474V11.9277C107.907 12.4024 107.921 12.7733 107.951 13.0403C108.218 13.07 108.619 13.0848 109.153 13.0848H110.933C111.111 13.0848 111.467 13.0552 112.001 12.9958C112.773 12.9365 113.44 12.9068 114.004 12.9068C114.241 12.9068 115.072 12.9513 116.496 13.0403L117.475 13.0848C117.713 13.0848 118.054 13.07 118.499 13.0403C118.944 12.981 119.374 12.9513 119.79 12.9513L121.258 12.9958C122.03 13.0552 122.564 13.0848 122.861 13.0848C123.187 13.0848 123.41 13.07 123.528 13.0403L123.795 12.9958C124.003 12.9958 124.151 13.07 124.24 13.2184C124.329 13.337 124.359 13.4557 124.329 13.5744C124.3 13.7821 124.285 14.0491 124.285 14.3755C124.285 14.6722 124.27 14.9393 124.24 15.1766C124.211 15.414 124.166 15.5624 124.107 15.6217C124.048 15.6514 123.87 15.6662 123.573 15.6662L121.793 15.4882C119.567 15.2805 118.113 15.1766 117.431 15.1766C114.909 15.1766 113.054 15.2211 111.868 15.3102C111.393 15.3695 110.874 15.3992 110.31 15.3992C109.746 15.3992 109.39 15.3992 109.242 15.3992C108.678 15.3992 108.263 15.3843 107.996 15.3547L107.862 16.0668C107.803 16.6008 107.773 17.0756 107.773 17.491C107.773 17.847 107.803 18.2624 107.862 18.7371C107.921 19.2119 107.951 19.6273 107.951 19.9833L107.996 25.2796L107.951 27.5049C107.921 27.7719 107.907 28.1428 107.907 28.6175C108.292 28.6472 108.856 28.662 109.598 28.662C110.221 28.6917 111.185 28.7065 112.491 28.7065L114.894 28.751C115.398 28.7807 116.17 28.7955 117.208 28.7955C117.832 28.7955 118.647 28.7659 119.656 28.7065L121.526 28.662C122.238 28.662 122.831 28.6769 123.306 28.7065C123.781 28.7362 124.137 28.751 124.374 28.751C124.611 28.751 124.745 28.7955 124.774 28.8846C124.834 28.9736 124.863 29.1664 124.863 29.4631C124.863 29.6708 124.849 29.8934 124.819 30.1307C124.789 30.3384 124.774 30.5758 124.774 30.8428C124.774 31.0505 124.7 31.1989 124.552 31.2879C124.404 31.3472 124.166 31.3769 123.84 31.3769C123.513 31.3769 123.246 31.3621 123.039 31.3324C122.238 31.2434 120.621 31.1989 118.188 31.1989C116.704 31.1989 115.636 31.2137 114.983 31.2434C114.479 31.2731 113.648 31.2879 112.491 31.2879L108.352 31.2434C107.877 31.2137 107.313 31.1989 106.66 31.1989C106.245 31.1989 105.963 31.1544 105.815 31.0654C105.696 30.9467 105.637 30.7687 105.637 30.5313L105.681 29.8192C105.711 29.7005 105.726 29.567 105.726 29.4186C105.726 29.3296 105.711 29.1219 105.681 28.7955C105.652 28.4395 105.637 27.8016 105.637 26.8818C105.637 25.9917 105.607 24.5378 105.548 22.5202C105.459 20.8586 105.414 19.2564 105.414 17.7135C105.414 17.0607 105.488 15.1766 105.637 12.0612C105.666 11.4381 105.696 10.815 105.726 10.1919C105.755 9.56885 105.77 9.0051 105.77 8.50069C105.77 5.05888 105.726 2.78906 105.637 1.69124C105.548 0.979137 105.978 0.623088 106.927 0.623088C107.165 0.623088 107.551 0.652758 108.085 0.712099C108.559 0.771442 108.915 0.801113 109.153 0.801113L111.957 0.712099C113.974 0.593415 115.532 0.534074 116.63 0.534074C117.906 0.534074 119.701 0.563745 122.015 0.623088C122.757 0.652758 123.543 0.667593 124.374 0.667593C124.73 0.667593 124.953 0.756605 125.042 0.93463C125.131 1.11266 125.16 1.30552 125.131 1.51321C125.131 1.69124 125.131 1.80992 125.131 1.86926V2.35883Z" fill="#FAFAFA"/>
</g>
</svg>
