<svg width="56" height="56" viewBox="0 0 56 56" fill="none" xmlns="http://www.w3.org/2000/svg">
<g id="Heart Glow" clip-path="url(#clip0_14266_1184)">
<path id="Vector" d="M21.1927 21.1953H23.1372V23.1398H21.1927V21.1953ZM23.526 21.1953H25.4705V23.1398H23.526V21.1953ZM18.8594 23.5286H20.8038V25.4731H18.8594V23.5286ZM18.8594 25.862H20.8038V27.8064H18.8594V25.862Z" fill="#1AC95F" stroke="#090A0C" stroke-width="0.388889"/>
<path id="Vector_2" d="M18.8594 28.1953H20.8038V30.1398H18.8594V28.1953ZM21.1927 30.5286H23.1372V32.4731H21.1927V30.5286Z" fill="#38E57D" stroke="#090A0C" stroke-width="0.388889"/>
<path id="Vector_3" d="M23.5273 30.5293H25.4718V32.4737H23.5273V30.5293ZM25.8607 30.5293H27.8051V32.4737H25.8607V30.5293ZM28.194 30.5293H30.1385V32.4737H28.194V30.5293Z" fill="#1AC95F" stroke="#090A0C" stroke-width="0.388889"/>
<path id="Vector_4" d="M30.5273 30.5293H32.4718V32.4737H30.5273V30.5293ZM32.8607 30.5293H34.8051V32.4737H32.8607V30.5293Z" fill="#107A3A" stroke="#090A0C" stroke-width="0.388889"/>
<path id="Vector_5" d="M23.5273 32.8633H25.4718V34.8077H23.5273V32.8633Z" fill="#1AC95F" stroke="#090A0C" stroke-width="0.388889"/>
<path id="Vector_6" d="M25.8594 32.8633H27.8038V34.8077H25.8594V32.8633ZM28.1927 32.8633H30.1372V34.8077H28.1927V32.8633ZM30.526 32.8633H32.4705V34.8077H30.526V32.8633ZM25.8594 35.1966H27.8038V37.1411H25.8594V35.1966ZM28.1927 35.1966H30.1372V37.1411H28.1927V35.1966Z" fill="#107A3A" stroke="#090A0C" stroke-width="0.388889"/>
<path id="Vector_7" d="M21.1953 23.5293H23.1398V25.4737H21.1953V23.5293Z" fill="#1AC95F" stroke="#090A0C" stroke-width="0.388889"/>
<path id="Vector_8" d="M21.1953 25.8626H23.1398V27.8071H21.1953V25.8626ZM21.1953 28.196H23.1398V30.1404H21.1953V28.196ZM23.5286 23.5293H25.4731V25.4737H23.5286V23.5293ZM23.5286 25.8626H25.4731V27.8071H23.5286V25.8626ZM23.5286 28.196H25.4731V30.1404H23.5286V28.196ZM25.862 23.5293H27.8064V25.4737H25.862V23.5293ZM28.1953 23.5293H30.1398V25.4737H28.1953V23.5293ZM25.862 25.8626H27.8064V27.8071H25.862V25.8626Z" fill="#38E57D" stroke="#090A0C" stroke-width="0.388889"/>
<path id="Vector_9" d="M25.8594 28.1966H27.8038V30.1411H25.8594V28.1966ZM28.1927 25.8633H30.1372V27.8077H28.1927V25.8633ZM28.1927 28.1966H30.1372V30.1411H28.1927V28.1966Z" fill="#1AC95F" stroke="#090A0C" stroke-width="0.388889"/>
<path id="Vector_10" d="M30.5273 21.1953H32.4718V23.1398H30.5273V21.1953Z" fill="#38E57D" stroke="#090A0C" stroke-width="0.388889"/>
<path id="Vector_11" d="M30.5273 23.5286H32.4718V25.4731H30.5273V23.5286ZM30.5273 25.862H32.4718V27.8064H30.5273V25.862ZM30.5273 28.1953H32.4718V30.1398H30.5273V28.1953ZM32.8607 21.1953H34.8051V23.1398H32.8607V21.1953ZM32.8607 23.5286H34.8051V25.4731H32.8607V23.5286Z" fill="#1AC95F" stroke="#090A0C" stroke-width="0.388889"/>
<path id="Vector_12" d="M32.8594 25.8626H34.8038V27.8071H32.8594V25.8626ZM32.8594 28.196H34.8038V30.1404H32.8594V28.196ZM35.1927 23.5293H37.1372V25.4737H35.1927V23.5293ZM35.1927 25.8626H37.1372V27.8071H35.1927V25.8626ZM35.1927 28.196H37.1372V30.1404H35.1927V28.196Z" fill="#107A3A" stroke="#090A0C" stroke-width="0.388889"/>
<g id="Mask group">
<mask id="mask0_14266_1184" style="mask-type:alpha" maskUnits="userSpaceOnUse" x="18" y="21" width="20" height="17">
<g id="Group">
<path id="Vector_13" d="M21.0013 21H23.3346V23.3333H21.0013V21ZM23.3346 21H25.668V23.3333H23.3346V21ZM18.668 23.3333H21.0013V25.6667H18.668V23.3333ZM18.668 25.6667H21.0013V28H18.668V25.6667Z" fill="#E26136"/>
<path id="Vector_14" d="M18.668 28H21.0013V30.3333H18.668V28ZM21.0013 30.3333H23.3346V32.6667H21.0013V30.3333Z" fill="#FF8964"/>
<path id="Vector_15" d="M23.3359 30.334H25.6693V32.6673H23.3359V30.334ZM25.6693 30.334H28.0026V32.6673H25.6693V30.334ZM28.0026 30.334H30.3359V32.6673H28.0026V30.334Z" fill="#E26136"/>
<path id="Vector_16" d="M30.3359 30.334H32.6693V32.6673H30.3359V30.334ZM32.6693 30.334H35.0026V32.6673H32.6693V30.334Z" fill="#E64C19"/>
<path id="Vector_17" d="M23.3359 32.666H25.6693V34.9993H23.3359V32.666Z" fill="#E26136"/>
<path id="Vector_18" d="M25.668 32.666H28.0013V34.9993H25.668V32.666ZM28.0013 32.666H30.3346V34.9993H28.0013V32.666ZM30.3346 32.666H32.668V34.9993H30.3346V32.666ZM25.668 34.9993H28.0013V37.3327H25.668V34.9993ZM28.0013 34.9993H30.3346V37.3327H28.0013V34.9993Z" fill="#E64C19"/>
<path id="Vector_19" d="M21 23.334H23.3333V25.6673H21V23.334Z" fill="#E26136"/>
<path id="Vector_20" d="M21 25.6673H23.3333V28.0007H21V25.6673ZM21 28.0007H23.3333V30.334H21V28.0007ZM23.3333 23.334H25.6667V25.6673H23.3333V23.334ZM23.3333 25.6673H25.6667V28.0007H23.3333V25.6673ZM23.3333 28.0007H25.6667V30.334H23.3333V28.0007ZM25.6667 23.334H28V25.6673H25.6667V23.334ZM28 23.334H30.3333V25.6673H28V23.334ZM25.6667 25.6673H28V28.0007H25.6667V25.6673Z" fill="#FF8964"/>
<path id="Vector_21" d="M25.668 27.9993H28.0013V30.3327H25.668V27.9993ZM28.0013 25.666H30.3346V27.9993H28.0013V25.666ZM28.0013 27.9993H30.3346V30.3327H28.0013V27.9993Z" fill="#E26136"/>
<path id="Vector_22" d="M30.3359 21H32.6693V23.3333H30.3359V21Z" fill="#FF8964"/>
<path id="Vector_23" d="M30.3359 23.3333H32.6693V25.6667H30.3359V23.3333ZM30.3359 25.6667H32.6693V28H30.3359V25.6667ZM30.3359 28H32.6693V30.3333H30.3359V28ZM32.6693 21H35.0026V23.3333H32.6693V21ZM32.6693 23.3333H35.0026V25.6667H32.6693V23.3333Z" fill="#E26136"/>
<path id="Vector_24" d="M32.668 25.6673H35.0013V28.0007H32.668V25.6673ZM32.668 28.0007H35.0013V30.334H32.668V28.0007ZM35.0013 23.334H37.3346V25.6673H35.0013V23.334ZM35.0013 25.6673H37.3346V28.0007H35.0013V25.6673ZM35.0013 28.0007H37.3346V30.334H35.0013V28.0007Z" fill="#E64C19"/>
</g>
</mask>
<g mask="url(#mask0_14266_1184)">
<g id="Group_2" filter="url(#filter0_f_14266_1184)">
<path id="Vector_25" d="M38.1115 43.5571C44.1253 43.5571 49.0004 38.682 49.0004 32.6682C49.0004 26.6544 44.1253 21.7793 38.1115 21.7793C32.0978 21.7793 27.2227 26.6544 27.2227 32.6682C27.2227 38.682 32.0978 43.5571 38.1115 43.5571Z" fill="#107A3A"/>
</g>
</g>
</g>
<g id="Group_3" opacity="0.3" filter="url(#filter1_f_14266_1184)">
<path id="Vector_26" d="M27.9983 38.8891C34.012 38.8891 38.8872 34.014 38.8872 28.0002C38.8872 21.9864 34.012 17.1113 27.9983 17.1113C21.9845 17.1113 17.1094 21.9864 17.1094 28.0002C17.1094 34.014 21.9845 38.8891 27.9983 38.8891Z" fill="#1AC95F"/>
</g>
</g>
<defs>
<filter id="filter0_f_14266_1184" x="10.1115" y="4.66818" width="55.9996" height="55.9996" filterUnits="userSpaceOnUse" color-interpolation-filters="sRGB">
<feFlood flood-opacity="0" result="BackgroundImageFix"/>
<feBlend mode="normal" in="SourceGraphic" in2="BackgroundImageFix" result="shape"/>
<feGaussianBlur stdDeviation="8.55556" result="effect1_foregroundBlur_14266_1184"/>
</filter>
<filter id="filter1_f_14266_1184" x="-0.00173759" y="0.00021553" width="55.9996" height="55.9996" filterUnits="userSpaceOnUse" color-interpolation-filters="sRGB">
<feFlood flood-opacity="0" result="BackgroundImageFix"/>
<feBlend mode="normal" in="SourceGraphic" in2="BackgroundImageFix" result="shape"/>
<feGaussianBlur stdDeviation="8.55556" result="effect1_foregroundBlur_14266_1184"/>
</filter>
<clipPath id="clip0_14266_1184">
<rect width="56" height="56" fill="white"/>
</clipPath>
</defs>
</svg>
