<svg width="40" height="40" viewBox="0 0 40 40" fill="none" xmlns="http://www.w3.org/2000/svg">
<g id="mage:playstore">
<path id="Vector" d="M5.1646 4.85065L20.6208 20.008L5.27955 35.305C5.02856 34.9781 4.83373 34.6118 4.70304 34.2209C4.63545 33.7784 4.63545 33.3282 4.70304 32.8858V6.85429C4.65706 6.15576 4.81799 5.45723 5.16283 4.85065M27.279 13.3975L22.2336 18.3951L6.96134 3.37577C7.4565 3.20423 7.98703 3.15648 8.50519 3.23783C9.31867 3.46066 10.095 3.80373 10.8077 4.25115L24.6298 11.8997C25.5282 12.3824 26.4036 12.89 27.279 13.3975ZM22.2354 21.6438L27.256 26.5742L23.6165 28.6008L12.5125 34.7727C11.5929 35.2802 10.6698 35.7648 9.77139 36.3183C9.38698 36.5576 8.95593 36.7122 8.50703 36.7716C8.05813 36.8311 7.60171 36.7941 7.16824 36.6631L22.2354 21.6438ZM35.2511 20.008C35.264 20.6263 35.1077 21.2365 34.7992 21.7726C34.4906 22.3086 34.0415 22.7502 33.5003 23.0497L29.3516 25.3522L23.8924 20.008L29.3746 14.5718C30.7805 15.3552 32.1634 16.1386 33.5445 16.8761C34.0954 17.1839 34.5478 17.6414 34.8495 18.1957C35.1512 18.7499 35.2916 19.3782 35.2511 20.008Z" fill="#0B5127"/>
</g>
</svg>
