<svg width="195" height="72" viewBox="0 0 195 72" fill="none" xmlns="http://www.w3.org/2000/svg">
<rect x="0.353516" width="194.4" height="72" rx="12" fill="white"/>
<path d="M17.9644 20.8507L33.4206 36.008L18.0794 51.305C17.8284 50.9781 17.6335 50.6118 17.5028 50.2209C17.4353 49.7784 17.4353 49.3282 17.5028 48.8858V22.8543C17.4569 22.1558 17.6178 21.4572 17.9626 20.8507M40.0788 29.3975L35.0334 34.3951L19.7611 19.3758C20.2563 19.2042 20.7868 19.1565 21.305 19.2378C22.1185 19.4607 22.8948 19.8037 23.6075 20.2511L37.4296 27.8997C38.328 28.3824 39.2034 28.89 40.0788 29.3975ZM35.0352 37.6438L40.0558 42.5742L36.4163 44.6008L25.3123 50.7727C24.3927 51.2802 23.4696 51.7648 22.5712 52.3183C22.1868 52.5576 21.7557 52.7122 21.3068 52.7716C20.8579 52.8311 20.4015 52.7941 19.968 52.6631L35.0352 37.6438ZM48.0509 36.008C48.0638 36.6263 47.9075 37.2365 47.599 37.7726C47.2904 38.3086 46.8413 38.7502 46.3001 39.0497L42.1514 41.3522L36.6922 36.008L42.1744 30.5718C43.5803 31.3552 44.9632 32.1386 46.3444 32.8761C46.8952 33.1839 47.3476 33.6414 47.6493 34.1957C47.951 34.7499 48.0914 35.3782 48.0509 36.008Z" fill="#302F58"/>
<path d="M71.3335 28.3672C68.8255 28.3672 67.0855 26.4832 67.0855 23.9992C67.0855 21.5272 68.8375 19.6312 71.3335 19.6312C72.9055 19.6312 74.2975 20.3632 75.0175 21.8152L74.0335 22.3672C73.4575 21.2512 72.5335 20.7352 71.4055 20.7352C69.5575 20.7352 68.3215 22.1032 68.3215 23.9992C68.3215 25.8952 69.5575 27.2632 71.4055 27.2632C72.5335 27.2632 73.4695 26.7472 74.0455 25.6312L75.0175 26.1832C74.2975 27.6352 72.9055 28.3672 71.3335 28.3672ZM79.1567 28.3672C77.2367 28.3672 76.0007 26.9032 76.0007 25.1632C76.0007 23.4232 77.2367 21.9472 79.1567 21.9472C81.0647 21.9472 82.3007 23.4232 82.3007 25.1632C82.3007 26.9032 81.0647 28.3672 79.1567 28.3672ZM79.1567 27.3232C80.3447 27.3232 81.1247 26.4232 81.1247 25.1632C81.1247 23.8912 80.3447 22.9912 79.1567 22.9912C77.9567 22.9912 77.1767 23.8912 77.1767 25.1632C77.1767 26.4232 77.9567 27.3232 79.1567 27.3232ZM91.0601 21.9472C92.3921 21.9472 93.1241 22.7872 93.1241 24.2752V28.1992H91.9961V24.5392C91.9961 23.4712 91.6361 22.9912 90.7721 22.9912C89.8001 22.9912 89.1041 23.6032 89.1041 24.6112V28.1992H87.9761V24.5392C87.9761 23.4712 87.6041 22.9912 86.7401 22.9912C85.7681 22.9912 85.0721 23.6032 85.0721 24.6112V28.1992H83.9441V22.1152H85.0721V23.1112C85.4081 22.3792 86.1401 21.9472 87.0521 21.9472C87.9761 21.9472 88.6361 22.3912 88.9241 23.1952C89.2481 22.4392 90.0401 21.9472 91.0601 21.9472ZM95.7232 20.9152C95.2792 20.9152 94.9672 20.5912 94.9672 20.1592C94.9672 19.7272 95.2792 19.4032 95.7232 19.4032C96.1792 19.4032 96.4792 19.7272 96.4792 20.1592C96.4792 20.5912 96.1792 20.9152 95.7232 20.9152ZM95.1592 28.1992V22.1152H96.2872V28.1992H95.1592ZM101.562 21.9472C102.918 21.9472 103.722 22.7872 103.722 24.2872V28.1992H102.594V24.5632C102.594 23.4712 102.162 22.9912 101.262 22.9912C100.242 22.9912 99.4862 23.6032 99.4862 24.6112V28.1992H98.3582V22.1152H99.4862V23.1112C99.8342 22.3672 100.614 21.9472 101.562 21.9472ZM110.397 22.1152H111.525V27.5032C111.525 29.6152 110.361 30.7672 108.333 30.7672C107.169 30.7672 106.173 30.3952 105.549 29.7712L106.161 28.9432C106.713 29.4352 107.481 29.7352 108.309 29.7352C109.641 29.7352 110.397 28.9912 110.397 27.5032V26.9752C110.049 27.7192 109.209 28.1872 108.201 28.1872C106.545 28.1872 105.321 26.9152 105.321 25.0672C105.321 23.2312 106.545 21.9472 108.201 21.9472C109.197 21.9472 110.049 22.4272 110.397 23.1832V22.1152ZM108.477 27.1552C109.665 27.1552 110.445 26.2792 110.445 25.0672C110.445 23.8552 109.665 22.9912 108.477 22.9912C107.277 22.9912 106.497 23.8552 106.497 25.0672C106.497 26.2792 107.277 27.1552 108.477 27.1552ZM118.507 28.3672C117.259 28.3672 116.263 27.8632 115.783 27.0832L116.527 26.4472C116.983 27.0592 117.691 27.3712 118.507 27.3712C119.335 27.3712 119.815 27.0232 119.815 26.5192C119.815 26.1232 119.551 25.8712 118.807 25.7032L117.835 25.4872C116.575 25.1872 115.999 24.6352 115.999 23.7832C115.999 22.7152 116.899 21.9472 118.411 21.9472C119.491 21.9472 120.343 22.3312 120.847 22.9672L120.127 23.6512C119.695 23.1952 119.083 22.9552 118.363 22.9552C117.535 22.9552 117.127 23.2672 117.127 23.7472C117.127 24.1072 117.355 24.3352 118.147 24.5152L119.215 24.7552C120.463 25.0312 120.943 25.6072 120.943 26.4352C120.943 27.5992 120.055 28.3672 118.507 28.3672ZM125.235 28.3672C123.315 28.3672 122.079 26.9032 122.079 25.1632C122.079 23.4232 123.315 21.9472 125.235 21.9472C127.143 21.9472 128.379 23.4232 128.379 25.1632C128.379 26.9032 127.143 28.3672 125.235 28.3672ZM125.235 27.3232C126.423 27.3232 127.203 26.4232 127.203 25.1632C127.203 23.8912 126.423 22.9912 125.235 22.9912C124.035 22.9912 123.255 23.8912 123.255 25.1632C123.255 26.4232 124.035 27.3232 125.235 27.3232ZM132.758 28.3672C130.838 28.3672 129.602 26.9032 129.602 25.1632C129.602 23.4232 130.838 21.9472 132.758 21.9472C134.666 21.9472 135.902 23.4232 135.902 25.1632C135.902 26.9032 134.666 28.3672 132.758 28.3672ZM132.758 27.3232C133.946 27.3232 134.726 26.4232 134.726 25.1632C134.726 23.8912 133.946 22.9912 132.758 22.9912C131.558 22.9912 130.778 23.8912 130.778 25.1632C130.778 26.4232 131.558 27.3232 132.758 27.3232ZM140.75 21.9472C142.106 21.9472 142.91 22.7872 142.91 24.2872V28.1992H141.782V24.5632C141.782 23.4712 141.35 22.9912 140.45 22.9912C139.43 22.9912 138.674 23.6032 138.674 24.6112V28.1992H137.546V22.1152H138.674V23.1112C139.022 22.3672 139.802 21.9472 140.75 21.9472ZM149.859 28.2952C148.611 28.2952 147.963 27.7312 147.963 26.5792V23.0872H146.763V22.1152H147.963V20.3152H149.091V22.1152H150.951V23.0872H149.091V26.4712C149.091 27.0712 149.379 27.2992 150.039 27.2992C150.303 27.2992 150.627 27.2632 150.975 27.1912V28.1392C150.579 28.2592 150.183 28.2952 149.859 28.2952ZM155.071 28.3672C153.151 28.3672 151.915 26.9032 151.915 25.1632C151.915 23.4232 153.151 21.9472 155.071 21.9472C156.979 21.9472 158.215 23.4232 158.215 25.1632C158.215 26.9032 156.979 28.3672 155.071 28.3672ZM155.071 27.3232C156.259 27.3232 157.039 26.4232 157.039 25.1632C157.039 23.8912 156.259 22.9912 155.071 22.9912C153.871 22.9912 153.091 23.8912 153.091 25.1632C153.091 26.4232 153.871 27.3232 155.071 27.3232ZM164.789 28.2952C163.541 28.2952 162.893 27.7312 162.893 26.5792V23.0872H161.693V22.1152H162.893V20.3152H164.021V22.1152H165.881V23.0872H164.021V26.4712C164.021 27.0712 164.309 27.2992 164.969 27.2992C165.233 27.2992 165.557 27.2632 165.905 27.1912V28.1392C165.509 28.2592 165.113 28.2952 164.789 28.2952ZM170.586 21.9472C171.942 21.9472 172.746 22.7872 172.746 24.2872V28.1992H171.618V24.5632C171.618 23.4712 171.186 22.9912 170.286 22.9912C169.266 22.9912 168.51 23.6032 168.51 24.6112V28.1992H167.382V19.4152H168.51V23.1112C168.858 22.3672 169.638 21.9472 170.586 21.9472ZM180.308 24.9592C180.308 25.1392 180.296 25.3192 180.272 25.4992H175.496C175.628 26.6632 176.384 27.3472 177.524 27.3472C178.28 27.3472 178.904 27.0592 179.408 26.4472L180.14 27.0952C179.552 27.8992 178.628 28.3672 177.5 28.3672C175.628 28.3672 174.344 27.0712 174.344 25.1752C174.344 23.3032 175.592 21.9472 177.404 21.9472C179.108 21.9472 180.308 23.1592 180.308 24.9592ZM177.404 22.9792C176.36 22.9792 175.688 23.6152 175.52 24.6352H179.168C179.072 23.5672 178.388 22.9792 177.404 22.9792Z" fill="#302F58"/>
<path d="M74.0851 36.5188C77.4307 36.5188 79.2259 38.1916 79.2259 41.1496C79.2259 44.128 77.4307 45.7804 74.0851 45.7804H70.7395V50.7988H68.1487V36.5188H74.0851ZM73.9219 43.4344C75.7783 43.4344 76.5127 42.7204 76.5127 41.1496C76.5127 39.5992 75.7783 38.9056 73.9219 38.9056H70.7395V43.4344H73.9219ZM81.5703 50.7988V35.866H84.0591V50.7988H81.5703ZM94.8189 40.4152H97.2669V50.7988H94.8189V49.1464C94.2069 50.3704 92.8401 51.0844 91.2693 51.0844C88.5152 51.0844 86.4956 48.8608 86.4956 45.6172C86.4956 42.3736 88.5152 40.1296 91.2693 40.1296C92.8401 40.1296 94.2069 40.864 94.8189 42.088V40.4152ZM91.9628 48.82C93.758 48.82 94.8801 47.494 94.8801 45.6172C94.8801 43.72 93.758 42.394 91.9628 42.394C90.1676 42.394 89.0456 43.72 89.0456 45.6172C89.0456 47.494 90.1676 48.82 91.9628 48.82ZM107.088 40.4152H109.557V49.7584C109.557 53.2468 107.619 55.1644 104.191 55.1644C102.417 55.1644 100.785 54.634 99.8054 53.716L100.927 51.9004C101.805 52.594 102.947 52.9408 104.049 52.9408C105.966 52.9408 107.109 51.8596 107.109 49.7584V48.8608C106.517 50.0032 105.252 50.6968 103.722 50.6968C101.519 50.6968 100.132 49.3096 100.132 46.78V40.4152H102.621V46.1476C102.621 47.7388 103.273 48.4324 104.579 48.4324C106.089 48.4324 107.088 47.5144 107.088 46.0048V40.4152ZM122.392 51.0844C119.495 51.0844 117.332 49.8604 116.394 47.8612L118.271 46.5148C119.107 47.9632 120.617 48.7588 122.473 48.7588C124.289 48.7588 125.288 47.9836 125.288 46.8004C125.288 45.9028 124.717 45.3316 123.126 44.944L120.821 44.3932C118.148 43.7608 116.802 42.394 116.802 40.3948C116.802 37.9672 118.801 36.2332 122.147 36.2332C124.738 36.2332 126.737 37.2736 127.573 38.8444L125.717 40.2112C124.942 39.13 123.697 38.5588 122.106 38.5588C120.372 38.5588 119.434 39.2524 119.434 40.354C119.434 41.17 119.964 41.7208 121.657 42.1288L124.003 42.6796C126.737 43.3324 127.92 44.6788 127.92 46.678C127.92 49.2892 125.921 51.0844 122.392 51.0844ZM134.504 50.962C132.158 50.962 131.056 49.9624 131.056 47.7592V42.598H129.098V40.4152H131.056V37.3552H133.545V40.4152H136.483V42.598H133.545V47.4328C133.545 48.3916 133.974 48.7384 135.034 48.7384C135.463 48.7384 135.993 48.6976 136.524 48.5752V50.6764C135.85 50.8804 135.177 50.962 134.504 50.962ZM143.441 51.0844C140.116 51.0844 137.974 48.616 137.974 45.6172C137.974 42.598 140.116 40.1296 143.441 40.1296C146.787 40.1296 148.908 42.598 148.908 45.6172C148.908 48.616 146.787 51.0844 143.441 51.0844ZM143.441 48.82C145.236 48.82 146.358 47.494 146.358 45.6172C146.358 43.72 145.236 42.394 143.441 42.394C141.646 42.394 140.524 43.72 140.524 45.6172C140.524 47.494 141.646 48.82 143.441 48.82ZM156.865 40.2316C157.191 40.2316 157.477 40.2724 157.762 40.3744V42.7C157.375 42.6388 156.967 42.598 156.62 42.598C154.804 42.598 153.845 43.516 153.845 45.6784V50.7988H151.357V40.4152H153.805V42.1492C154.315 40.9456 155.437 40.2316 156.865 40.2316ZM169.055 45.3928C169.055 45.6988 169.034 46.0252 168.994 46.3516H161.262C161.527 48.0244 162.629 48.922 164.322 48.922C165.485 48.922 166.464 48.4936 167.219 47.6164L168.708 49.0852C167.729 50.35 166.158 51.0844 164.24 51.0844C160.936 51.0844 158.732 48.922 158.732 45.658C158.732 42.4348 160.854 40.1296 163.996 40.1296C167.015 40.1296 169.055 42.2308 169.055 45.3928ZM164.016 42.292C162.486 42.292 161.527 43.1692 161.262 44.6584H166.566C166.444 43.1284 165.505 42.292 164.016 42.292Z" fill="#302F58"/>
</svg>
